<svg id="Camada_1" data-name="Camada 1" xmlns="http://www.w3.org/2000/svg" xmlns:xlink="http://www.w3.org/1999/xlink" viewBox="0 0 284 311"><defs><style>.cls-1{fill:#1a1a1a;}.cls-2{fill:#37383a;}.cls-3{fill:#facfa9;}.cls-4{fill:#fad3b1;}.cls-5{fill:#eaa180;}.cls-6{fill:#8a6039;}.cls-7{fill:#8c6239;}.cls-8{fill:none;stroke:#8c6239;stroke-width:0.1px;}.cls-9{fill:#4d4d4d;}.cls-10{fill:#e6b537;}.cls-11{fill:#de636a;}.cls-12{fill:#0a612c;}.cls-13{clip-path:url(#clip-path);}</style><clipPath id="clip-path"><path class="cls-1" d="M172.53,131.51s-1.25-6.7-6.83-9.88c-2.13-1.18-9.54-1.49-9.54-1.49s-6.6,21.58-14.11,21.58-14.24-21.58-14.24-21.58-7.38.3-9.47,1.49c-5.65,3.18-6.9,9.88-6.9,9.88l10.56,10a9,9,0,0,0-1.25,4.74c0,3.82,1.56,6.94,4.3,8.63,6.16,17.39-8.76,10.59-8.76,60.89,0,.27,11.23,2.4,25.78,2.4s25.68-2.13,25.68-2.4c0-51.69-14.85-43.5-8.76-60.89,2.81-1.69,4.36-4.8,4.36-8.63a9,9,0,0,0-1.25-4.74l10.45-10Z"/></clipPath></defs><title>Diretores svg</title><path class="cls-2" d="M130,287.94c-2.67,0-4.57-2.77-4.77-5.18A18.4,18.4,0,0,0,124,287.3c0,4.5,3.55,7.65,5.85,7.65s6.16-3.08,6.16-7.58a16,16,0,0,0-1.25-4.6c-.13,2.4-2.06,5.18-4.74,5.18Z"/><path class="cls-2" d="M153.92,287.94c-2.67,0-4.63-2.77-4.77-5.18a18.15,18.15,0,0,0-1.29,4.53c0,4.5,3.59,7.65,5.92,7.65s6.09-3.08,6.09-7.58a17.06,17.06,0,0,0-1.18-4.6c-.17,2.4-2.06,5.18-4.77,5.18Z"/><path class="cls-3" d="M178.34,191.29a25.45,25.45,0,0,1-.74-5.14c.1-12-.81-59.41-14.28-63.3-9.64-2.81-15.63-3.45-13.33-9.57,1.42-3.86,3.11-11.16,3-16.24,0-7.61-22-7.61-22,0a54.24,54.24,0,0,0,3,16.24c2.3,6.12-3.75,6.77-13.36,9.57-13.46,3.89-14.38,51.29-14.28,63.3a27.66,27.66,0,0,1-.68,5.14c-3.38,14.72,5,16.1,5.18,15.93,1.45-.91,3-5.92,1.18-15.93,2.91-38,7.78-51.62,11.33-55.48,1.25,5.31-2,5.11-2,10.45,0,4.74,2.37,8.32,6.39,9.57.37,7.78.1,14.68.1,14.68s-7.58,12.45-8,19.79c-1.83,19.72,3.28,35.56,4,40.66.44,7.68.34,5.35-1,12.69-2,11,2.27,16.88,2.94,22.87,1.22,10.89-.54,16.37-.68,17.15-.78,2.64-1.66,5.62,2.77,6.8.68.14,5.75-.34,6.7-1.45a3.76,3.76,0,0,0,.68-4.16c-.51-1.42-2.1-12-1.52-24,.54-28.65,4.7-65.46,8.19-65.46h.1c3.45,0,7.65,36.81,8.15,65.46.61,12-1,22.56-1.42,24a3.7,3.7,0,0,0,.64,4.16c1,1.12,6.06,1.59,6.63,1.45,4.47-1.18,3.62-4.16,2.88-6.8-.24-.78-1.93-6.26-.68-17.15.64-6,4.94-11.84,2.91-22.87-1.32-7.34-1.49-5-1-12.69.68-5.11,5.79-20.94,4-40.66-.54-7.34-8.05-19.79-8.05-19.79s-.3-6.9.14-14.68c4-1.25,6.39-4.84,6.39-9.57,0-5.35-3.38-5.14-2-10.45,3.52,3.86,8.36,17.52,11.33,55.48-1.86,10-.37,15,1.12,15.93.17.17,8.63-1.22,5.24-15.93Z"/><path class="cls-4" d="M142.32,119.71c14.92,0,37.86-27.13,37.86-49.36s-15.87-35.18-36.3-35.18S105.82,46.81,105.82,69s23.11,50.68,36.5,50.68Z"/><path class="cls-5" d="M144.18,88.08c-.27-.2-1.49,5-4.87,7.88-.27.2,5.21,2,4.4,1.45s-2.44-1.32-2.4-2.13,3.18-6.9,2.88-7.21Z"/><path class="cls-6" d="M155.65,87.77c-2.64.2-5,2-5.28-.37-.27-2.74,2.3-4.57,4.87-4.8,2.06-.24,4.87,1.86,4.84,4.26-.14,2.67-1.83.78-4.43.91Z"/><path class="cls-6" d="M129.87,87.77c2.57.2,5,2,5.24-.37.27-2.74-2.3-4.57-4.84-4.8-2.06-.24-4.91,1.86-4.8,4.26.1,2.67,1.79.78,4.4.91Z"/><path class="cls-7" d="M179.93,62.61c-.68-8.93-4.4-20.47-18.17-26.32A11,11,0,0,0,163.12,31c0-8.22-9.34-14.92-20.91-14.92S121.34,22.76,121.34,31a11.94,11.94,0,0,0,2.57,7.21c-9,5.38-20.1,14.72-19.52,28,.07,1.42.1,2.67.17,3.89-2.91,4.87-5.11,11.16-2.57,16.41a24,24,0,0,0,14.51,13c1.89,1.73-10.66-13.67,4.06-18.74s31.22-9.71,34.34-22c.27-.91,2.16,13.84,12.25,17.69,6.29,2.33,6.09,15.22,2.57,23.24-.14.34,21.31-11.77,10.22-37Z"/><path class="cls-8" d="M179.93,62.61c-.68-8.93-4.4-20.47-18.17-26.32A11,11,0,0,0,163.12,31c0-8.22-9.34-14.92-20.91-14.92S121.34,22.76,121.34,31a11.94,11.94,0,0,0,2.57,7.21c-9,5.38-20.1,14.72-19.52,28,.07,1.42.1,2.67.17,3.89-2.91,4.87-5.11,11.16-2.57,16.41a24,24,0,0,0,14.51,13c1.89,1.73-10.66-13.67,4.06-18.74s31.22-9.71,34.34-22c.27-.91,2.16,13.84,12.25,17.69,6.29,2.33,6.09,15.22,2.57,23.24-.14.34,21.31-11.77,10.22-37Z"/><path class="cls-9" d="M155.75,87.77c-2.57.2-5,2-5.28-.37-.24-2.74,2.37-4.57,4.94-4.8,2-.24,4.87,1.86,4.77,4.26-.1,2.67-1.83.78-4.43.91Z"/><path class="cls-9" d="M130,87.77c2.57.2,5,2,5.28-.37.27-2.74-2.3-4.57-4.91-4.8-2-.24-4.87,1.86-4.8,4.26.1,2.67,1.86.78,4.43.91Z"/><path class="cls-10" d="M156.63,80.81c-2.2-.24-4.94-.14-4.26-1.59.61-1.29,5.24.41,6,.68a15.78,15.78,0,0,1,4.06,2.4,21.42,21.42,0,0,0-5.82-1.49Z"/><path class="cls-7" d="M156.63,80.81c-2.2-.24-4.94-.14-4.26-1.59.61-1.29,5.24.41,6,.68a15.78,15.78,0,0,1,4.06,2.4,21.42,21.42,0,0,0-5.82-1.49Z"/><path class="cls-10" d="M129.16,80.81c2.2-.24,4.94-.14,4.26-1.59-.64-1.29-5.28.41-6.06.68a15.71,15.71,0,0,0-4.06,2.4,21.82,21.82,0,0,1,5.85-1.49Z"/><path class="cls-7" d="M129.16,80.81c2.2-.24,4.94-.14,4.26-1.59-.64-1.29-5.28.41-6.06.68a15.71,15.71,0,0,0-4.06,2.4,21.82,21.82,0,0,1,5.85-1.49Z"/><path class="cls-11" d="M150.67,104.35s-.13-.54-1.45.27a24.16,24.16,0,0,1-9.3,1.83c-.14,0-1.69,0-1.69,1,0,0,0,2.06,3.38,2.1,5.62,0,9.54-4.36,9.07-5.24Z"/><path class="cls-12" d="M160.08,145.62l3.25-22.77-13.87,1.42-8.83,20.2,19.45,1.15ZM127.37,141l17.46,3.52L136,124.27l-16.37-.54,3.69,15.8Z"/><path class="cls-1" d="M172.53,131.51s-1.25-6.7-6.83-9.88c-2.13-1.18-9.54-1.49-9.54-1.49s-6.6,21.58-14.11,21.58-14.24-21.58-14.24-21.58-7.38.3-9.47,1.49c-5.65,3.18-6.9,9.88-6.9,9.88l10.56,10a9,9,0,0,0-1.25,4.74c0,3.82,1.56,6.94,4.3,8.63,6.16,17.39-8.76,10.59-8.76,60.89,0,.27,11.23,2.4,25.78,2.4s25.68-2.13,25.68-2.4c0-51.69-14.85-43.5-8.76-60.89,2.81-1.69,4.36-4.8,4.36-8.63a9,9,0,0,0-1.25-4.74l10.45-10Z"/><g class="cls-13"><path class="cls-1" d="M160.86,153.33a9.82,9.82,0,0,1-8.32,2.91,8.56,8.56,0,0,1-5.38-2.1s-.74-.71-.51.27c1.29,5.07,12.79,5.11,12.89,5s.1,0,.34-1l1-5.11Zm-23.44,1.08s.2-1-.51-.27a8.93,8.93,0,0,1-5.38,2.1c-3.62.27-6.5-.85-7.61-2.13,0,0-.68-.78-.58.24l.78,4.19a1.25,1.25,0,0,0,1.22,1s10.79,0,12.08-5.11Z"/></g></svg>