<svg id="Camada_1" data-name="Camada 1" xmlns="http://www.w3.org/2000/svg" viewBox="0 0 284 311"><defs><style>.cls-1{fill:#37383a;}.cls-2{fill:#eaa180;}.cls-3{fill:#1a1a1a;}.cls-4{fill:#f2f2f2;}.cls-5{fill:#ebebeb;}.cls-6{fill:#0a612c;}.cls-7{fill:#e58274;}.cls-8{fill:#ecab8c;}.cls-9{fill:#414244;}.cls-10{fill:#e79080;}.cls-11{fill:#333;}</style></defs><title>Diretores svg</title><path class="cls-1" d="M181.92,294.26c0-2.55-26.74-9.9-26.74-9.9l-7.06-.17a11.39,11.39,0,0,0-.69,7.13s34.49,5.5,34.49,2.94Z"/><path class="cls-1" d="M103.67,294.26c0-2.55,26.74-9.9,26.74-9.9l7.06-.17a11.36,11.36,0,0,1,.69,7.13s-34.49,5.5-34.49,2.94Z"/><path class="cls-2" d="M169,120c-6.75-6.77-12.64-4.62-13.74-7.08s2-9.4,3.74-13.85c1.6-4.14-7.33-6.19-16.2-6.16S125,95,126.56,99.12c1.73,4.44,4.84,11.38,3.74,13.85s-7,.32-13.74,7.08c0,3,18.74,11.39,24.09,11.39h4.06c.06,0,24.26-3.05,24.26-11.39Z"/><path class="cls-3" d="M164.31,180.81c-.89,9.19.16,62.33-8.37,105.27l-8.2-.73s5.36-89.17-4.72-89.17-4.83,89.19-4.83,89.19l-8.44.94c-8.15-39.64-7-94.62-8.06-105.51Z"/><path class="cls-2" d="M179.77,179.66c-3,8.44-9.28,21.12-17.7,22-2-.94-4.24-6.36-.81-13a22.51,22.51,0,0,0,8.51-9Z"/><path class="cls-2" d="M105.41,179.66c3,8.44,9.28,21.12,17.7,22,2-.94,4.24-6.36.81-13a22.5,22.5,0,0,1-8.52-9Z"/><path class="cls-4" d="M181,136c-5.71-19.14-17.82-21.59-23.84-21.75h-.07c0,.07-10.18,8.55-14.51,8.76-4.32-.21-14.49-8.69-14.5-8.76H128c-6,.17-18.13,2.61-23.84,21.75-9.08,25.66.72,49.3,2.59,51.71.35.45,8.13-5.17,9.5-8.09.69-1.49-13.13-30.45,6.58-49.91-.62,8.8-2.56,24.18-2.8,52.21a81.49,81.49,0,0,0,22.52,3.53h.06A81.55,81.55,0,0,0,165.14,182c-.24-28-2.18-43.41-2.8-52.21,19.7,19.46,5.88,48.43,6.57,49.91,1.36,2.92,9.14,8.54,9.49,8.09,1.88-2.41,11.68-26.05,2.6-51.71Z"/><path class="cls-5" d="M103.13,182.17l3.12,7.4,11-8.76s-.33-6.17-1-6.3-13.12,7.66-13.12,7.66Z"/><path class="cls-6" d="M147.54,123.17h-8.32s-1.67,5.12.94,6.18l1.31.79-3.27,45.56a2.49,2.49,0,0,0,.79,1.87l1,.92a1.7,1.7,0,0,0,2,.15l2.62-1.55s1.15-.69,1.12-1.72l-1-45.72c.72-.05,5-5.07,2.83-6.49Z"/><path class="cls-5" d="M158.39,113.45l-2-1.31a1.2,1.2,0,0,0-1.58,0L142.69,122.2h0l-11.9-9.81a1.18,1.18,0,0,0-1.58.07l-2,1.35a1.18,1.18,0,0,0-.16,1.55s9.79,14.42,10.28,13.85,4.48-4.69,5.35-5.88c.83,1.17,4.8,5.27,5.21,5.76S158.5,115,158.5,115a1.15,1.15,0,0,0-.11-1.54Z"/><path class="cls-5" d="M182,182.17l-3.11,7.4-11-8.76s.34-6.17,1-6.3S182,182.17,182,182.17Z"/><path class="cls-7" d="M106.13,71.15c-.64.12-5.52-5.9-7.47-1.25s4,15.63,8.1,16.32,4.85-2.54,5.14-3.91-5.77-11.16-5.77-11.16Z"/><path class="cls-7" d="M177.49,70.76c.63.14,5.73-5.71,7.51-1s-4.54,15.48-8.67,16-4.75-2.71-5-4.09,6.16-11,6.16-11Z"/><path class="cls-8" d="M141.94,112.29c20.05,0,37.19-26.59,37.19-48.4S163.53,19.5,143.48,19.5s-37.42,21.28-37.42,43.09,15.83,49.7,35.88,49.7Z"/><path class="cls-9" d="M156.64,78.54c-2.62.18-5.12,2-5.34-.37-.26-2.79,2.34-4.63,5-4.9,2-.21,4.95,1.91,4.85,4.34-.11,2.71-1.84.74-4.47.93Z"/><path class="cls-9" d="M128.63,78.54c2.63.18,5.12,2,5.34-.37.26-2.79-2.34-4.63-5-4.9-2-.21-5,1.91-4.85,4.34.11,2.71,1.84.74,4.47.93Z"/><path class="cls-10" d="M145.9,80.79l-1.15-3.89s-2.72-9.19-5.44,0l-1.15,3.89S135.45,90,142,90c0,0,6.59,0,3.87-9.2Z"/><path class="cls-11" d="M123.29,67.9a2.64,2.64,0,0,0-2.7,2.7v1.06a2.64,2.64,0,0,0,2.7,2.7h10.22a2.65,2.65,0,0,0,2.71-2.7V70.6a2.65,2.65,0,0,0-2.71-2.7Z"/><path class="cls-11" d="M161.86,67.9a2.64,2.64,0,0,1,2.7,2.7v1.06a2.65,2.65,0,0,1-2.7,2.7H151.65a2.64,2.64,0,0,1-2.7-2.7V70.6a2.64,2.64,0,0,1,2.7-2.7Z"/><path class="cls-11" d="M121.25,41.63c17-6.8,49.52-9.09,56.64-2.83s-5.28,46.54-5.28,46.54l1.7.77S212.75,28.59,148.44,29s-47.1,43.11-36.35,57.58c.19.26,1.61,0,1.58-.08-8.76-22.53-6.85-39.07,7.58-44.85Z"/><path class="cls-7" d="M152.87,93.35s-.2-1-2,.4A26,26,0,0,1,138.45,97c-.16,0-2.23,0-2.23,1.9a2.41,2.41,0,0,0,2.23,1.9c7.49.89,15.05-6,14.43-7.47Z"/><path class="cls-11" d="M110.32,65.16s20.38,5.39,33.56.65C160,60,151,51.19,164.43,43.15c.15-.09-.23,16.09,6.45,22s-2.27,26.74-2.27,26.74l4.25.72s31.75-76.88-28.51-76.51S104.48,79.44,114.55,93a11.54,11.54,0,0,0,3.25-.08c-8.21-21.11-7.48-27.76-7.48-27.76Z"/></svg>