<svg id="Camada_1" data-name="Camada 1" xmlns="http://www.w3.org/2000/svg" viewBox="0 0 284 311"><defs><style>.cls-1{fill:#37383a;}.cls-2{fill:#f6ba8b;}.cls-3{fill:#1a1a1a;}.cls-4{fill:#f2f2f2;}.cls-5{fill:#ebebeb;}.cls-6{fill:#0a612c;}.cls-7{fill:#f6c197;}.cls-8{fill:#f7c8a3;}.cls-9{fill:#c79e5c;}.cls-10{fill:#e68d8c;}.cls-11{fill:#414244;}.cls-12{fill:#eaa180;}.cls-13{fill:#c1954c;}</style></defs><title>Diretores svg</title><path class="cls-1" d="M181.71,294.26c0-2.58-27-10-27-10l-7.13-.17a11.48,11.48,0,0,0-.7,7.19c0,.05,34.83,5.55,34.83,3Z"/><path class="cls-1" d="M102.7,294.26c0-2.58,27-10,27-10l7.13-.17a11.48,11.48,0,0,1,.7,7.19c0,.05-34.83,5.55-34.83,3Z"/><path class="cls-2" d="M168.64,118.34c-6.82-6.83-12.77-4.67-13.87-7.15s2-9.5,3.78-14C160.16,93,151.14,91,142.18,91s-18,2-16.36,6.22c1.74,4.49,4.88,11.49,3.77,14s-7.06.32-13.87,7.15c0,3,18.92,11.5,24.32,11.5h4.1c.06,0,24.49-3.08,24.49-11.5Z"/><path class="cls-3" d="M163.93,179.7c-.9,9.28.16,62.94-8.46,106.3l-8.28-.73s5.41-90-4.77-90-4.88,90.06-4.88,90.06l-8.52,1c-8.23-40-7-95.55-8.14-106.53Z"/><path class="cls-2" d="M179.54,178.53c-3.06,8.52-9.37,21.33-17.87,22.21-2-.95-4.28-6.42-.82-13.08a22.67,22.67,0,0,0,8.6-9.13Z"/><path class="cls-2" d="M104.46,178.53c3.06,8.52,9.37,21.33,17.87,22.21,2-.95,4.28-6.42.81-13.08a22.72,22.72,0,0,1-8.6-9.13Z"/><path class="cls-4" d="M180.79,134.49c-5.76-19.33-18-21.8-24.08-22h-.07c0,.07-10.28,8.63-14.65,8.84-4.37-.21-14.63-8.77-14.65-8.84h-.08c-6.08.17-18.31,2.64-24.07,22-9.17,25.91.73,49.78,2.62,52.22.35.45,8.21-5.22,9.59-8.17.7-1.5-13.25-30.74,6.64-50.4-.63,8.89-2.59,24.42-2.83,52.72A82.27,82.27,0,0,0,142,184.42H142a82.3,82.3,0,0,0,22.73-3.57c-.24-28.3-2.2-43.83-2.83-52.72,19.9,19.66,5.94,48.9,6.64,50.4,1.38,3,9.24,8.63,9.58,8.17,1.9-2.44,11.8-26.31,2.62-52.22Z"/><path class="cls-5" d="M102.16,181.07l3.14,7.47,11.14-8.84s-.34-6.23-1-6.36-13.24,7.73-13.24,7.73Z"/><path class="cls-6" d="M147,121.5h-8.4s-1.69,5.17.95,6.24l1.32.8-3.3,46a2.52,2.52,0,0,0,.8,1.89l1,.93a1.72,1.72,0,0,0,2.05.15L144,176s1.17-.69,1.13-1.73l-1-46.17c.73-.06,5.07-5.12,2.86-6.55Z"/><path class="cls-5" d="M158,111.68l-2-1.32a1.2,1.2,0,0,0-1.59,0l-12.29,10.18,0,0,0,0-12-9.9a1.2,1.2,0,0,0-1.6.07l-2,1.37a1.19,1.19,0,0,0-.16,1.56s9.89,14.56,10.38,14,4.53-4.74,5.4-5.94c.85,1.18,4.85,5.32,5.26,5.81s10.76-14.23,10.76-14.23a1.16,1.16,0,0,0-.11-1.56Z"/><path class="cls-5" d="M181.84,181.07l-3.15,7.47-11.14-8.84s.34-6.23,1-6.36,13.24,7.73,13.24,7.73Z"/><path class="cls-2" d="M109,71c-.6.11-5.18-5.54-7-1.17s3.76,14.67,7.61,15.32,4.55-2.39,4.82-3.67S109,71,109,71Z"/><path class="cls-7" d="M176,70.69c.6.14,5.38-5.36,7-.93s-4.27,14.53-8.14,15-4.46-2.54-4.69-3.83S176,70.69,176,70.69Z"/><path class="cls-8" d="M142.55,109.67c18.82,0,34.9-25,34.9-45.43S162.82,22.57,144,22.57s-35.13,20-35.13,40.44,14.86,46.65,33.68,46.65Z"/><path class="cls-9" d="M110.78,63.14s19.53,5.45,32.84.66C159.89,58,150.8,49,164.37,40.92c.15-.09-.23,16.25,6.51,22.17s-2,16.31-2,16.31l5.63,1s24.36-64.38-31.32-64.38c-53.06,0-41.28,50-31.12,63.69a14.59,14.59,0,0,0,3.67-.08c-6.79-19.29-4.93-16.53-4.93-16.53Z"/><path class="cls-10" d="M153.66,91.38s-.2-1-2,.41a26.27,26.27,0,0,1-12.6,3.29c-.16,0-2.25,0-2.25,1.92a2.43,2.43,0,0,0,2.25,1.92c7.56.89,15.2-6,14.57-7.54Z"/><path class="cls-11" d="M156.43,78c-2.47.17-4.8,1.92-5-.34-.24-2.62,2.2-4.35,4.66-4.6,1.91-.2,4.65,1.8,4.56,4.08-.1,2.54-1.73.7-4.19.87Z"/><path class="cls-11" d="M129.48,78c2.47.17,4.8,1.92,5-.34.25-2.62-2.2-4.35-4.65-4.6-1.91-.2-4.65,1.8-4.56,4.08.1,2.54,1.73.7,4.19.87Z"/><path class="cls-12" d="M146.74,79.5l-1.08-3.65s-2.55-8.63-5.1,0l-1.08,3.65s-2.55,8.63,3.63,8.63c0,0,6.18,0,3.63-8.63Z"/><path class="cls-13" d="M124.66,68a2.67,2.67,0,0,0-2.73,2.73v.61a2.67,2.67,0,0,0,2.73,2.73h9.2a2.67,2.67,0,0,0,2.73-2.73v-.61A2.67,2.67,0,0,0,133.87,68Z"/><path class="cls-13" d="M161.14,68a2.67,2.67,0,0,1,2.72,2.73v.61a2.67,2.67,0,0,1-2.72,2.73h-9.21a2.67,2.67,0,0,1-2.73-2.73v-.61A2.67,2.67,0,0,1,151.93,68Z"/></svg>