<svg id="Camada_1" data-name="Camada 1" xmlns="http://www.w3.org/2000/svg" xmlns:xlink="http://www.w3.org/1999/xlink" viewBox="0 0 284 311"><defs><style>.cls-1{fill:#f2f2f2;}.cls-2{fill:#4c4d4e;}.cls-3{fill:#d8d8d6;}.cls-4{fill:#da9a62;}.cls-5{fill:#37383a;}.cls-6{fill:#dfa571;}.cls-7{fill:#c18c5c;}.cls-8{fill:#0a612c;}.cls-9{clip-path:url(#clip-path);}.cls-10{fill:#1a1a1a;}.cls-11{fill:#414244;}.cls-12{fill:#de636a;}.cls-13{fill:#ebebeb;}</style><clipPath id="clip-path"><path class="cls-1" d="M169.87,121.35s-1.16-7.17-6.26-10.62c-1.92-1.18-8.64-1.49-8.64-1.49s-6,22.94-12.93,22.94-12.87-22.94-12.87-22.94-6.78.3-8.67,1.49c-5.16,3.45-6.26,10.62-6.26,10.62l9.54,10.55a11.08,11.08,0,0,0-1.16,5.07c0,4.09,1.45,7.38,4,9.2,5.54,18.4-8,25.51-8,79,.06.3,10.26,2.57,23.42,2.57s23.43-2.27,23.43-2.57c0-55-13.51-60.55-7.95-79,2.49-1.83,3.88-5.11,3.88-9.2a11.56,11.56,0,0,0-1.1-5.07l9.57-10.55Z"/></clipPath></defs><title>Diretores svg</title><path class="cls-2" d="M157.49,122c3.89.37,7.33-3.28,7.71-8.22s-2.46-9.2-6.38-9.64-7.33,3.32-7.71,8.22,2.46,9.17,6.38,9.64Z"/><path class="cls-3" d="M130.68,106.9v8.32h22.58V106.9a43.43,43.43,0,0,0-11.3-1.22,43.33,43.33,0,0,0-11.28,1.22Z"/><path class="cls-2" d="M158.94,106.43c4.29,0,7.8-4.4,7.8-9.95s-3.51-9.91-7.8-9.91-7.83,4.43-7.83,9.91,3.48,9.95,7.83,9.95Z"/><path class="cls-4" d="M175.09,184.87a43.09,43.09,0,0,1-.64-5.48c.11-12.79-.72-63.16-13-67.25-8.75-3-14.26-3.72-12.15-10.18a67.15,67.15,0,0,0,2.81-17.25c-.11-8.12-20.06-8.12-20.12,0A65.86,65.86,0,0,0,134.8,102c2.09,6.46-3.42,7.21-12.18,10.18-12.26,4.09-13.09,54.47-13,67.25a39.26,39.26,0,0,1-.68,5.48c-3,15.6,4.58,17.08,4.77,16.92,1.35-1,2.72-6.29,1.06-16.92,2.64-40.39,7.06-54.9,10.31-59,1.16,5.68-1.83,5.48-1.83,11.16,0,5,2.12,8.83,5.77,10.15.41,8.25.15,15.66.15,15.66s-6.87,13.16-7.33,20.94c-1.68,21,3,37.82,3.65,43.17.4,8.19.32,5.75-.93,13.6-1.83,11.71,2.09,17.9,2.7,24.26,1.13,11.6-.43,17.42-.66,18.23-.64,2.77-1.42,6,2.61,7.24.61.17,5.19-.41,6.09-1.45a4.65,4.65,0,0,0,.58-4.47c-.41-1.52-1.92-12.82-1.33-25.57.46-30.48,4.26-69.56,7.45-69.56h.09c3.19,0,7,39.07,7.42,69.56.55,12.75-.84,24.05-1.34,25.57a4.64,4.64,0,0,0,.58,4.47c.93,1,5.54,1.62,6.09,1.45,4.06-1.29,3.31-4.47,2.58-7.24-.15-.81-1.77-6.63-.61-18.23.58-6.36,4.52-12.55,2.66-24.26-1.22-7.85-1.33-5.41-.87-13.6.58-5.35,5.28-22.16,3.65-43.17-.46-7.78-7.39-20.94-7.39-20.94s-.2-7.41.11-15.66c3.69-1.32,5.83-5.11,5.83-10.15,0-5.68-3-5.48-1.83-11.16,3.22,4.13,7.68,18.67,10.29,59-1.62,10.62-.26,15.9,1.1,16.92.15.17,7.83-1.32,4.7-16.92Z"/><path class="cls-5" d="M131.2,287.51c-2.44,0-4.18-2.91-4.35-5.41a21.72,21.72,0,0,0-1.1,4.77c0,4.8,3.25,8.12,5.33,8.12s5.59-3.28,5.59-8a18.32,18.32,0,0,0-1.13-4.87c-.12,2.5-1.85,5.41-4.35,5.41Z"/><path class="cls-5" d="M152.94,287.51c-2.38,0-4.17-2.91-4.29-5.41a17.47,17.47,0,0,0-1.16,4.77c0,4.8,3.25,8.12,5.33,8.12s5.57-3.28,5.57-8a18.45,18.45,0,0,0-1.1-4.87c-.15,2.5-1.86,5.41-4.35,5.41Z"/><path class="cls-6" d="M142.33,108.76c13.6,0,34.5-28.82,34.5-52.44s-14.47-37.38-33-37.38-34.72,12.31-34.72,36,21,53.86,33.27,53.86Z"/><path class="cls-7" d="M144,75.24c-.2-.34-1.27,5.31-4.4,8.32-.23.17,4.69,2.1,4,1.52s-2.26-1.42-2.2-2.23,2.84-7.41,2.61-7.61Z"/><path class="cls-8" d="M153.18,136.33V117.76l-7.88,3.89L141,133.9l12.18,2.44Zm-22.38,0L143,133.9l-4.29-12.25-7.95-3.89v18.57Z"/><path class="cls-1" d="M169.87,121.35s-1.16-7.17-6.26-10.62c-1.92-1.18-8.64-1.49-8.64-1.49s-6,22.94-12.93,22.94-12.87-22.94-12.87-22.94-6.78.3-8.67,1.49c-5.16,3.45-6.26,10.62-6.26,10.62l9.54,10.55a11.08,11.08,0,0,0-1.16,5.07c0,4.09,1.45,7.38,4,9.2,5.54,18.4-8,25.51-8,79,.06.3,10.26,2.57,23.42,2.57s23.43-2.27,23.43-2.57c0-55-13.51-60.55-7.95-79,2.49-1.83,3.88-5.11,3.88-9.2a11.56,11.56,0,0,0-1.1-5.07l9.57-10.55Z"/><g class="cls-9"><path class="cls-1" d="M159.2,144.48a8,8,0,0,1-7.53,3.15,7.27,7.27,0,0,1-4.93-2.27s-.69-.74-.46.3c1.16,5.38,11.66,5.45,11.71,5.31s.12,0,.29-1l.92-5.45Zm-21.33,1.18s.2-1-.46-.3a7.41,7.41,0,0,1-4.93,2.27c-3.27.3-5.85-.88-7-2.3,0,0-.64-.85-.44.2l.67,4.47s.17,1.12,1.1,1.12c0,0,9.83-.07,11-5.45Z"/></g><path class="cls-10" d="M127.87,155.38c-.93,9-9.25,27.84-9.25,68.71,0,0,0,1,0,1.22s10.23,2.4,23.39,2.4,23.43-2.27,23.43-2.4v-1.22c0-41.75-8.18-60.22-9-67.63,0,0-.15-1.08-1.08-1.08Z"/><path class="cls-2" d="M154.42,74.9c-2.35.17-4.61,2.1-4.81-.44a4.87,4.87,0,0,1,4.49-5.14c1.8-.17,4.41,2,4.32,4.57-.09,2.84-1.65.78-4,1Z"/><path class="cls-2" d="M131,74.9c2.32.17,4.55,2.1,4.75-.44a4.85,4.85,0,0,0-4.47-5.14c-1.79-.17-4.47,2-4.35,4.57.11,2.84,1.68.78,4.06,1Z"/><path class="cls-11" d="M155.15,67.39c-2-.24-4.47-.1-3.83-1.69.55-1.35,4.76.47,5.45.81a13,13,0,0,1,3.71,2.5,16.68,16.68,0,0,0-5.33-1.62Z"/><path class="cls-11" d="M130.22,67.39c2-.24,4.47-.1,3.83-1.69-.52-1.35-4.76.47-5.51.81a14.12,14.12,0,0,0-3.71,2.5,16.73,16.73,0,0,1,5.39-1.62Z"/><path class="cls-2" d="M178.4,56.9c0,18.37-11,34.44-15.31,36.94,9.65-38.94-23.48-19.82-31.34-47-2.14,1.45-16.65,26.66-13.45,39-5-2.23-12.7-11.16-12.7-32.71,0-46.45,72.79-53.72,72.79,3.79Z"/><path class="cls-12" d="M150,92.42s-.12-.54-1.28.3a20,20,0,0,1-8.52,1.93c-.12,0-1.54,0-1.54,1.12,0,0,.06,2.17,3.1,2.23,5.13.07,8.7-4.63,8.24-5.58Z"/><path class="cls-13" d="M153.29,106.9c-1.74,3.18-8.34,11.33-9.19,13.43-.75,1.83-1.59,6.94-2.14,10.76-.5-3.82-1.33-8.93-2.12-10.76-.84-2.1-7.42-10.25-9.11-13.43-2.43,1.66-7.91,5.85-7.45,7.51.55,2,11.77,4.91,13.45,7.21s5.19,10,5.22,9.74c.08.24,3.56-7.44,5.24-9.74s12.93-5.24,13.45-7.21c.52-1.66-5-5.85-7.37-7.51Z"/></svg>